<svg width="744" height="540" viewBox="0 0 744 540" fill="none" xmlns="http://www.w3.org/2000/svg">
<g id="undraw_education_f8ru 1" clip-path="url(#clip0)" filter="url(#filter0_d)">
<g id="Vector" filter="url(#filter1_d)">
<path d="M467 325.016V455.016H141.301C104.192 455.016 74 425.856 74 390.016C74 354.176 104.192 325.016 141.301 325.016H467Z" fill="white"/>
</g>
<g id="bookcolor1" filter="url(#filter2_d)">
<path d="M475 454.016C475 455.342 474.473 456.613 473.535 457.551C472.597 458.488 471.326 459.015 470 459.016H135.5C117.333 459.016 99.9094 451.799 87.0632 438.953C74.217 426.106 67 408.683 67 390.516C67 372.349 74.217 354.925 87.0632 342.079C99.9094 329.233 117.333 322.016 135.5 322.016H470C471.326 322.016 472.598 322.543 473.536 323.48C474.473 324.418 475 325.69 475 327.016C475 328.342 474.473 329.614 473.536 330.551C472.598 331.489 471.326 332.016 470 332.016H135.5C119.985 332.016 105.105 338.179 94.1342 349.15C83.1634 360.121 77 375.001 77 390.516C77 406.031 83.1634 420.911 94.1342 431.882C105.105 442.852 119.985 449.016 135.5 449.016H470C471.326 449.016 472.597 449.543 473.535 450.481C474.473 451.418 475 452.69 475 454.016Z" fill="#B08968"/>
</g>
<g id="Vector_2" filter="url(#filter3_d)">
<path d="M467 355.016H117C116.735 355.016 116.48 354.91 116.293 354.723C116.105 354.535 116 354.281 116 354.016C116 353.751 116.105 353.496 116.293 353.309C116.48 353.121 116.735 353.016 117 353.016H467C467.265 353.016 467.52 353.121 467.707 353.309C467.895 353.496 468 353.751 468 354.016C468 354.281 467.895 354.535 467.707 354.723C467.52 354.91 467.265 355.016 467 355.016Z" fill="#CCCCCC"/>
</g>
<g id="Vector_3" filter="url(#filter4_d)">
<path d="M467 379.016H117C116.735 379.016 116.48 378.91 116.293 378.723C116.105 378.535 116 378.281 116 378.016C116 377.751 116.105 377.496 116.293 377.309C116.48 377.121 116.735 377.016 117 377.016H467C467.265 377.016 467.52 377.121 467.707 377.309C467.895 377.496 468 377.751 468 378.016C468 378.281 467.895 378.535 467.707 378.723C467.52 378.91 467.265 379.016 467 379.016Z" fill="#CCCCCC"/>
</g>
<g id="Vector_4" filter="url(#filter5_d)">
<path d="M467 403.016H117C116.735 403.016 116.48 402.91 116.293 402.723C116.105 402.535 116 402.281 116 402.016C116 401.751 116.105 401.496 116.293 401.309C116.48 401.121 116.735 401.016 117 401.016H467C467.265 401.016 467.52 401.121 467.707 401.309C467.895 401.496 468 401.751 468 402.016C468 402.281 467.895 402.535 467.707 402.723C467.52 402.91 467.265 403.016 467 403.016Z" fill="#CCCCCC"/>
</g>
<g id="Vector_5" filter="url(#filter6_d)">
<path d="M467 427.016H117C116.735 427.016 116.48 426.91 116.293 426.723C116.105 426.535 116 426.281 116 426.016C116 425.751 116.105 425.496 116.293 425.309C116.48 425.121 116.735 425.016 117 425.016H467C467.265 425.016 467.52 425.121 467.707 425.309C467.895 425.496 468 425.751 468 426.016C468 426.281 467.895 426.535 467.707 426.723C467.52 426.91 467.265 427.016 467 427.016Z" fill="#CCCCCC"/>
</g>
<g id="Vector_6" filter="url(#filter7_d)">
<path d="M718.717 349.487L637.153 450.715L383.537 246.365C354.641 223.082 349.427 181.433 371.914 153.525C394.401 125.617 436.206 121.854 465.102 145.137L718.717 349.487Z" fill="white"/>
</g>
<g id="bookcolor2" filter="url(#filter8_d)">
<path d="M644.01 454.956C643.177 455.988 641.969 456.647 640.651 456.789C639.333 456.931 638.012 456.544 636.979 455.712L376.511 245.84C362.364 234.441 353.325 217.89 351.382 199.827C349.439 181.764 354.751 163.668 366.149 149.522C377.548 135.375 394.099 126.336 412.162 124.393C430.225 122.45 448.321 127.762 462.467 139.161L722.936 349.033C723.447 349.445 723.873 349.953 724.188 350.53C724.503 351.106 724.702 351.739 724.772 352.392C724.842 353.045 724.784 353.706 724.599 354.336C724.414 354.966 724.106 355.554 723.694 356.065C723.282 356.577 722.773 357.002 722.197 357.317C721.62 357.632 720.987 357.83 720.334 357.9C719.681 357.97 719.021 357.91 718.39 357.725C717.76 357.54 717.173 357.232 716.661 356.82L456.193 146.947C450.211 142.124 443.338 138.526 435.965 136.359C428.593 134.193 420.866 133.5 413.225 134.32C405.585 135.141 398.181 137.458 391.437 141.141C384.692 144.823 378.739 149.798 373.918 155.782C369.097 161.765 365.502 168.64 363.338 176.013C361.174 183.387 360.484 191.114 361.308 198.754C362.131 206.394 364.452 213.797 368.137 220.54C371.822 227.283 376.799 233.234 382.785 238.053L643.253 447.925C644.285 448.758 644.945 449.966 645.087 451.284C645.228 452.602 644.841 453.923 644.01 454.956V454.956Z" fill="#7F5539"/>
</g>
<g id="Vector_7" filter="url(#filter9_d)">
<path d="M699.895 372.847L427.357 153.25C427.254 153.167 427.169 153.066 427.106 152.95C427.044 152.835 427.004 152.709 426.99 152.578C426.976 152.448 426.988 152.315 427.025 152.189C427.062 152.063 427.123 151.946 427.205 151.844C427.288 151.741 427.39 151.656 427.505 151.594C427.62 151.531 427.747 151.491 427.877 151.477C428.008 151.463 428.14 151.475 428.266 151.512C428.392 151.549 428.509 151.61 428.612 151.692L701.15 371.29C701.252 371.372 701.337 371.474 701.4 371.589C701.463 371.704 701.503 371.831 701.517 371.962C701.532 372.092 701.52 372.225 701.483 372.351C701.446 372.477 701.384 372.594 701.302 372.697C701.219 372.799 701.118 372.884 701.002 372.947C700.887 373.01 700.76 373.05 700.63 373.064C700.499 373.078 700.367 373.066 700.241 373.029C700.115 372.991 699.997 372.93 699.895 372.847V372.847Z" fill="#CCCCCC"/>
</g>
<g id="Vector_8" filter="url(#filter10_d)">
<path d="M684.837 391.536L412.299 171.938C412.092 171.772 411.961 171.53 411.933 171.267C411.904 171.003 411.982 170.739 412.148 170.533C412.315 170.326 412.556 170.195 412.819 170.166C413.083 170.138 413.347 170.215 413.553 170.381L686.092 389.978C686.194 390.06 686.279 390.162 686.342 390.277C686.405 390.393 686.445 390.519 686.459 390.65C686.473 390.781 686.462 390.913 686.425 391.039C686.388 391.165 686.326 391.283 686.244 391.385C686.161 391.487 686.059 391.572 685.944 391.635C685.829 391.698 685.702 391.738 685.571 391.752C685.441 391.766 685.309 391.754 685.183 391.717C685.056 391.68 684.939 391.618 684.837 391.536V391.536Z" fill="#CCCCCC"/>
</g>
<g id="Vector_9" filter="url(#filter11_d)">
<path d="M669.779 410.224L397.241 190.626C397.034 190.46 396.902 190.218 396.874 189.955C396.845 189.691 396.923 189.427 397.089 189.22C397.256 189.014 397.497 188.882 397.761 188.854C398.025 188.825 398.289 188.903 398.495 189.069L671.033 408.666C671.136 408.749 671.221 408.851 671.284 408.966C671.347 409.081 671.386 409.208 671.4 409.338C671.414 409.469 671.402 409.601 671.366 409.727C671.329 409.853 671.267 409.97 671.185 410.073C671.102 410.175 671.001 410.26 670.885 410.323C670.77 410.386 670.644 410.425 670.513 410.439C670.382 410.453 670.25 410.442 670.124 410.405C669.998 410.368 669.881 410.306 669.779 410.224V410.224Z" fill="#CCCCCC"/>
</g>
<g id="Vector_10" filter="url(#filter12_d)">
<path d="M654.72 428.912L382.182 209.315C382.08 209.232 381.995 209.131 381.932 209.015C381.869 208.9 381.83 208.774 381.816 208.643C381.801 208.513 381.813 208.381 381.85 208.255C381.887 208.128 381.949 208.011 382.031 207.909C382.114 207.806 382.215 207.721 382.331 207.659C382.446 207.596 382.572 207.556 382.703 207.542C382.833 207.528 382.965 207.54 383.091 207.577C383.217 207.614 383.335 207.675 383.437 207.757L655.975 427.355C656.078 427.437 656.163 427.539 656.226 427.654C656.289 427.769 656.329 427.896 656.343 428.027C656.357 428.157 656.345 428.29 656.309 428.416C656.272 428.542 656.21 428.659 656.128 428.762C656.045 428.864 655.943 428.949 655.828 429.012C655.713 429.075 655.586 429.115 655.455 429.129C655.325 429.143 655.192 429.131 655.066 429.093C654.94 429.056 654.823 428.995 654.72 428.912V428.912Z" fill="#CCCCCC"/>
</g>
</g>
<defs>
<filter id="filter0_d" x="-4" y="0" width="752" height="547.286" filterUnits="userSpaceOnUse" color-interpolation-filters="sRGB">
<feFlood flood-opacity="0" result="BackgroundImageFix"/>
<feColorMatrix in="SourceAlpha" type="matrix" values="0 0 0 0 0 0 0 0 0 0 0 0 0 0 0 0 0 0 127 0" result="hardAlpha"/>
<feOffset dy="4"/>
<feGaussianBlur stdDeviation="2"/>
<feComposite in2="hardAlpha" operator="out"/>
<feColorMatrix type="matrix" values="0 0 0 0 0 0 0 0 0 0 0 0 0 0 0 0 0 0 0.25 0"/>
<feBlend mode="normal" in2="BackgroundImageFix" result="effect1_dropShadow"/>
<feBlend mode="normal" in="SourceGraphic" in2="effect1_dropShadow" result="shape"/>
</filter>
<filter id="filter1_d" x="67" y="323.016" width="423" height="160" filterUnits="userSpaceOnUse" color-interpolation-filters="sRGB">
<feFlood flood-opacity="0" result="BackgroundImageFix"/>
<feColorMatrix in="SourceAlpha" type="matrix" values="0 0 0 0 0 0 0 0 0 0 0 0 0 0 0 0 0 0 127 0" result="hardAlpha"/>
<feOffset dx="8" dy="13"/>
<feGaussianBlur stdDeviation="7.5"/>
<feComposite in2="hardAlpha" operator="out"/>
<feColorMatrix type="matrix" values="0 0 0 0 0 0 0 0 0 0 0 0 0 0 0 0 0 0 0.25 0"/>
<feBlend mode="normal" in2="BackgroundImageFix" result="effect1_dropShadow"/>
<feBlend mode="normal" in="SourceGraphic" in2="effect1_dropShadow" result="shape"/>
</filter>
<filter id="filter2_d" x="63" y="322.016" width="416" height="145" filterUnits="userSpaceOnUse" color-interpolation-filters="sRGB">
<feFlood flood-opacity="0" result="BackgroundImageFix"/>
<feColorMatrix in="SourceAlpha" type="matrix" values="0 0 0 0 0 0 0 0 0 0 0 0 0 0 0 0 0 0 127 0" result="hardAlpha"/>
<feOffset dy="4"/>
<feGaussianBlur stdDeviation="2"/>
<feComposite in2="hardAlpha" operator="out"/>
<feColorMatrix type="matrix" values="0 0 0 0 0 0 0 0 0 0 0 0 0 0 0 0 0 0 0.25 0"/>
<feBlend mode="normal" in2="BackgroundImageFix" result="effect1_dropShadow"/>
<feBlend mode="normal" in="SourceGraphic" in2="effect1_dropShadow" result="shape"/>
</filter>
<filter id="filter3_d" x="112" y="353.016" width="360" height="10" filterUnits="userSpaceOnUse" color-interpolation-filters="sRGB">
<feFlood flood-opacity="0" result="BackgroundImageFix"/>
<feColorMatrix in="SourceAlpha" type="matrix" values="0 0 0 0 0 0 0 0 0 0 0 0 0 0 0 0 0 0 127 0" result="hardAlpha"/>
<feOffset dy="4"/>
<feGaussianBlur stdDeviation="2"/>
<feComposite in2="hardAlpha" operator="out"/>
<feColorMatrix type="matrix" values="0 0 0 0 0 0 0 0 0 0 0 0 0 0 0 0 0 0 0.25 0"/>
<feBlend mode="normal" in2="BackgroundImageFix" result="effect1_dropShadow"/>
<feBlend mode="normal" in="SourceGraphic" in2="effect1_dropShadow" result="shape"/>
</filter>
<filter id="filter4_d" x="112" y="377.016" width="360" height="10" filterUnits="userSpaceOnUse" color-interpolation-filters="sRGB">
<feFlood flood-opacity="0" result="BackgroundImageFix"/>
<feColorMatrix in="SourceAlpha" type="matrix" values="0 0 0 0 0 0 0 0 0 0 0 0 0 0 0 0 0 0 127 0" result="hardAlpha"/>
<feOffset dy="4"/>
<feGaussianBlur stdDeviation="2"/>
<feComposite in2="hardAlpha" operator="out"/>
<feColorMatrix type="matrix" values="0 0 0 0 0 0 0 0 0 0 0 0 0 0 0 0 0 0 0.25 0"/>
<feBlend mode="normal" in2="BackgroundImageFix" result="effect1_dropShadow"/>
<feBlend mode="normal" in="SourceGraphic" in2="effect1_dropShadow" result="shape"/>
</filter>
<filter id="filter5_d" x="112" y="401.016" width="360" height="10" filterUnits="userSpaceOnUse" color-interpolation-filters="sRGB">
<feFlood flood-opacity="0" result="BackgroundImageFix"/>
<feColorMatrix in="SourceAlpha" type="matrix" values="0 0 0 0 0 0 0 0 0 0 0 0 0 0 0 0 0 0 127 0" result="hardAlpha"/>
<feOffset dy="4"/>
<feGaussianBlur stdDeviation="2"/>
<feComposite in2="hardAlpha" operator="out"/>
<feColorMatrix type="matrix" values="0 0 0 0 0 0 0 0 0 0 0 0 0 0 0 0 0 0 0.25 0"/>
<feBlend mode="normal" in2="BackgroundImageFix" result="effect1_dropShadow"/>
<feBlend mode="normal" in="SourceGraphic" in2="effect1_dropShadow" result="shape"/>
</filter>
<filter id="filter6_d" x="112" y="425.016" width="360" height="10" filterUnits="userSpaceOnUse" color-interpolation-filters="sRGB">
<feFlood flood-opacity="0" result="BackgroundImageFix"/>
<feColorMatrix in="SourceAlpha" type="matrix" values="0 0 0 0 0 0 0 0 0 0 0 0 0 0 0 0 0 0 127 0" result="hardAlpha"/>
<feOffset dy="4"/>
<feGaussianBlur stdDeviation="2"/>
<feComposite in2="hardAlpha" operator="out"/>
<feColorMatrix type="matrix" values="0 0 0 0 0 0 0 0 0 0 0 0 0 0 0 0 0 0 0.25 0"/>
<feBlend mode="normal" in2="BackgroundImageFix" result="effect1_dropShadow"/>
<feBlend mode="normal" in="SourceGraphic" in2="effect1_dropShadow" result="shape"/>
</filter>
<filter id="filter7_d" x="343.942" y="129.864" width="402.776" height="364.851" filterUnits="userSpaceOnUse" color-interpolation-filters="sRGB">
<feFlood flood-opacity="0" result="BackgroundImageFix"/>
<feColorMatrix in="SourceAlpha" type="matrix" values="0 0 0 0 0 0 0 0 0 0 0 0 0 0 0 0 0 0 127 0" result="hardAlpha"/>
<feOffset dx="7" dy="23"/>
<feGaussianBlur stdDeviation="10.5"/>
<feComposite in2="hardAlpha" operator="out"/>
<feColorMatrix type="matrix" values="0 0 0 0 0 0 0 0 0 0 0 0 0 0 0 0 0 0 0.21 0"/>
<feBlend mode="normal" in2="BackgroundImageFix" result="effect1_dropShadow"/>
<feBlend mode="normal" in="SourceGraphic" in2="effect1_dropShadow" result="shape"/>
</filter>
<filter id="filter8_d" x="346.989" y="124" width="381.812" height="340.818" filterUnits="userSpaceOnUse" color-interpolation-filters="sRGB">
<feFlood flood-opacity="0" result="BackgroundImageFix"/>
<feColorMatrix in="SourceAlpha" type="matrix" values="0 0 0 0 0 0 0 0 0 0 0 0 0 0 0 0 0 0 127 0" result="hardAlpha"/>
<feOffset dy="4"/>
<feGaussianBlur stdDeviation="2"/>
<feComposite in2="hardAlpha" operator="out"/>
<feColorMatrix type="matrix" values="0 0 0 0 0 0 0 0 0 0 0 0 0 0 0 0 0 0 0.25 0"/>
<feBlend mode="normal" in2="BackgroundImageFix" result="effect1_dropShadow"/>
<feBlend mode="normal" in="SourceGraphic" in2="effect1_dropShadow" result="shape"/>
</filter>
<filter id="filter9_d" x="422.984" y="151.471" width="282.539" height="229.598" filterUnits="userSpaceOnUse" color-interpolation-filters="sRGB">
<feFlood flood-opacity="0" result="BackgroundImageFix"/>
<feColorMatrix in="SourceAlpha" type="matrix" values="0 0 0 0 0 0 0 0 0 0 0 0 0 0 0 0 0 0 127 0" result="hardAlpha"/>
<feOffset dy="4"/>
<feGaussianBlur stdDeviation="2"/>
<feComposite in2="hardAlpha" operator="out"/>
<feColorMatrix type="matrix" values="0 0 0 0 0 0 0 0 0 0 0 0 0 0 0 0 0 0 0.25 0"/>
<feBlend mode="normal" in2="BackgroundImageFix" result="effect1_dropShadow"/>
<feBlend mode="normal" in="SourceGraphic" in2="effect1_dropShadow" result="shape"/>
</filter>
<filter id="filter10_d" x="407.927" y="170.16" width="282.538" height="229.597" filterUnits="userSpaceOnUse" color-interpolation-filters="sRGB">
<feFlood flood-opacity="0" result="BackgroundImageFix"/>
<feColorMatrix in="SourceAlpha" type="matrix" values="0 0 0 0 0 0 0 0 0 0 0 0 0 0 0 0 0 0 127 0" result="hardAlpha"/>
<feOffset dy="4"/>
<feGaussianBlur stdDeviation="2"/>
<feComposite in2="hardAlpha" operator="out"/>
<feColorMatrix type="matrix" values="0 0 0 0 0 0 0 0 0 0 0 0 0 0 0 0 0 0 0.25 0"/>
<feBlend mode="normal" in2="BackgroundImageFix" result="effect1_dropShadow"/>
<feBlend mode="normal" in="SourceGraphic" in2="effect1_dropShadow" result="shape"/>
</filter>
<filter id="filter11_d" x="392.868" y="188.848" width="282.538" height="229.597" filterUnits="userSpaceOnUse" color-interpolation-filters="sRGB">
<feFlood flood-opacity="0" result="BackgroundImageFix"/>
<feColorMatrix in="SourceAlpha" type="matrix" values="0 0 0 0 0 0 0 0 0 0 0 0 0 0 0 0 0 0 127 0" result="hardAlpha"/>
<feOffset dy="4"/>
<feGaussianBlur stdDeviation="2"/>
<feComposite in2="hardAlpha" operator="out"/>
<feColorMatrix type="matrix" values="0 0 0 0 0 0 0 0 0 0 0 0 0 0 0 0 0 0 0.25 0"/>
<feBlend mode="normal" in2="BackgroundImageFix" result="effect1_dropShadow"/>
<feBlend mode="normal" in="SourceGraphic" in2="effect1_dropShadow" result="shape"/>
</filter>
<filter id="filter12_d" x="377.81" y="207.536" width="282.539" height="229.598" filterUnits="userSpaceOnUse" color-interpolation-filters="sRGB">
<feFlood flood-opacity="0" result="BackgroundImageFix"/>
<feColorMatrix in="SourceAlpha" type="matrix" values="0 0 0 0 0 0 0 0 0 0 0 0 0 0 0 0 0 0 127 0" result="hardAlpha"/>
<feOffset dy="4"/>
<feGaussianBlur stdDeviation="2"/>
<feComposite in2="hardAlpha" operator="out"/>
<feColorMatrix type="matrix" values="0 0 0 0 0 0 0 0 0 0 0 0 0 0 0 0 0 0 0.25 0"/>
<feBlend mode="normal" in2="BackgroundImageFix" result="effect1_dropShadow"/>
<feBlend mode="normal" in="SourceGraphic" in2="effect1_dropShadow" result="shape"/>
</filter>
<clipPath id="clip0">
<rect width="744" height="539.286" fill="white"/>
</clipPath>
</defs>
</svg>
