<svg width="912" height="951" viewBox="0 0 912 951" fill="none" xmlns="http://www.w3.org/2000/svg">
<g id="Group 3">
<path id="Vector" d="M561.046 112.96L241.686 221.371L314.375 707.231L625.281 607.044L561.046 112.96Z" fill="#EDE0D4"/>
<path id="Vector_2" opacity="0.1" d="M561.046 112.96L241.686 221.371L314.375 707.231L625.281 607.044L561.046 112.96Z" fill="black"/>
<path id="Vector_3" d="M247.475 228.323C256.004 223.558 265.142 219.974 274.636 217.671L547.264 151.535C547.264 151.535 611.643 177.952 605.735 214.674L283.369 257.287L247.475 228.323Z" fill="#F2F2F2"/>
<path id="Vector_4" d="M241.223 219.403L254.392 752.524C254.392 752.524 268.169 784.614 298.506 789.945L658.736 775.833L641.748 199.964L281.17 239.099L241.223 219.403Z" fill="#EDE0D4"/>
<path id="Vector_5" d="M574.776 240.407L349.905 255.892L350.223 260.518L575.094 245.033L574.776 240.407Z" fill="#3F3D56"/>
<path id="Vector_6" d="M321.926 296.491L317.293 296.63L330.352 732.094L334.985 731.955L321.926 296.491Z" fill="#3F3D56"/>
<path id="Vector_7" d="M591.389 735.252L350.78 754.541L351.151 759.164L591.759 739.875L591.389 735.252Z" fill="#3F3D56"/>
<path id="Vector_8" d="M600.983 264.017L596.357 264.265L619.721 699.381L624.348 699.132L600.983 264.017Z" fill="#3F3D56"/>
<path id="Vector_9" d="M572.566 163.872L270.83 221.36L271.364 224.169L573.101 166.681L572.566 163.872Z" fill="#3F3D56"/>
<path id="Vector_10" d="M587.657 175.314L276.656 228.363L277.137 231.185L588.138 178.136L587.657 175.314Z" fill="#3F3D56"/>
<path id="Vector_11" d="M598.045 186.646L281.565 231.426L281.966 234.26L598.446 189.48L598.045 186.646Z" fill="#3F3D56"/>
<path id="Vector_12" d="M313.46 397.789C303.726 400.089 293.506 399.153 284.342 395.122L283.774 394.871L163.769 340.615C158.211 338.1 153.2 334.512 149.023 330.057C144.846 325.602 141.585 320.367 139.426 314.65C137.266 308.934 136.251 302.848 136.437 296.74C136.624 290.632 138.009 284.622 140.513 279.053C143.017 273.484 146.591 268.465 151.032 264.282C155.473 260.1 160.692 256.836 166.394 254.676C172.095 252.517 178.165 251.505 184.259 251.698C190.352 251.89 196.349 253.284 201.908 255.8L279.655 291.018L387.714 50.9417C390.22 45.3734 393.796 40.3556 398.238 36.1746C402.68 31.9935 407.901 28.7311 413.603 26.5739C419.305 24.4167 425.376 23.4068 431.469 23.6018C437.563 23.7968 443.559 25.1929 449.117 27.7105L448.457 29.2553L449.146 27.7238C460.36 32.8188 469.104 42.1626 473.46 53.7053C477.816 65.2481 477.428 78.0471 472.38 89.2944L345.278 371.682C342.333 378.193 337.932 383.935 332.414 388.462C326.896 392.99 320.41 396.182 313.46 397.789Z" fill="#9C6644"/>
</g>
</svg>
